<svg xmlns="http://www.w3.org/2000/svg" width="966.24" height="342.087" viewBox="0 0 966.24 342.087"><g id="LOGO" transform="translate(-0.002 -0.002)"><path id="Trazado_125" data-name="Trazado 125" d="M404.541,114.787l7.759-19.4s33.43-5.568,57.436,0c0,0,15.745,3.879,17.434,16.727,0,0,1.939,10.657-5.317,22.774,0,0-8.261,12.368-16.978,15.289,0,0-1.689,1.689-13.555,5.317,0,0,31.263,2.419,19.625,34.183,0,0-5.819,20.1-30.783,28.342,0,0-21.564,11.159-66.632,0l2.9-21.085s23.755,10.177,46.049,5.089c0,0,21.085-5.568,22.294-23.983,0,0,.479-10.177-12.368-12.619,0,0-2.419-2.168-29.072-.958l6.047-19.625s20.127,3.149,33.681-3.4c0,0,15.038-5.819,11.889-21.815,0,0-.479-5.568-10.908-7.759C444.041,111.866,426.585,109.219,404.541,114.787Z" transform="translate(478.836 119.108)" fill="#225191"></path><path id="Trazado_126" data-name="Trazado 126" d="M325.67,190.033v-13.3a27.537,27.537,0,0,1,2.487-6.321,30.42,30.42,0,0,1,5.248-7.165,45.423,45.423,0,0,1,7.941-6.253,59.989,59.989,0,0,1,13.03-5.842,191.9,191.9,0,0,1,21.747-5.75c2.374-.5,4.792-1.1,7.394-1.826a53.335,53.335,0,0,0,6.252-2.1,16.7,16.7,0,0,0,4.313-2.647,14.157,14.157,0,0,0,3.012-3.4,10.13,10.13,0,0,0,1.37-3.583,7.629,7.629,0,0,0-1.141-6.024,9.345,9.345,0,0,0-5.34-3.446,29.463,29.463,0,0,0-7.85-.958q-16.259.068-37.538,8.146c1.575-4.427,2.715-7.508,3.24-9.287.525-1.8,1.415-4.5,2.647-8.1a218.59,218.59,0,0,1,22.294-4.222,142.491,142.491,0,0,1,18.21-1.232A61.12,61.12,0,0,1,410.74,109c5.088,1.529,9.059,4.039,11.5,7.416,2.487,3.446,3.286,8.352,2.077,14.81-.662,3.491-2.829,12.391-6.389,26.744-1.757,7.188-3.469,14.559-5.089,21.975q-2.43,11.158-4.61,22.705c-4.609-.091-8.762-.137-12.573-.114-3.651.023-7.987.091-12.938.228,2.145-7.462,4.359-16.156,6.595-25.946q2.6-11.535,5.34-23.025c-2.556,1.552-4.518,2.647-5.728,3.24a38.508,38.508,0,0,1-4.45,1.734c-1.552.525-4.29,1.369-8.283,2.442s-7.234,2.008-9.653,2.83a48.281,48.281,0,0,0-6.663,2.761,27.443,27.443,0,0,0-5.249,3.423,15.826,15.826,0,0,0-3.537,4.016,14.379,14.379,0,0,0-1.666,4.5,9.34,9.34,0,0,0,1.027,6.686,8.97,8.97,0,0,0,4.815,3.948,23.626,23.626,0,0,0,7.6,1.072,49.929,49.929,0,0,0,6.161-.525,53.682,53.682,0,0,0,9.1-2.328,161.007,161.007,0,0,0-7.325,15.768c-4.45.776-7.987,1.232-10.451,1.438-2.6.205-4.929.319-7.1.319-7.553.023-13.624-.981-18.142-3.058a15.887,15.887,0,0,1-8.877-9.972C326.012,191.4,325.83,190.718,325.67,190.033Z" transform="translate(417.483 136.804)" fill="#225191"></path><path id="Trazado_127" data-name="Trazado 127" d="M375.3,110.465l-.046,6.458c-.639,4.5-1.232,9.013-1.848,13.509-8.626-3.1-16.2-4.678-23.07-4.7a37.054,37.054,0,0,0-12.322,1.985,31.841,31.841,0,0,0-10.953,6.549,34.015,34.015,0,0,0-7.872,10.337,48.051,48.051,0,0,0-4.153,12c-1.187,5.75-1.324,10.7-.388,14.947a14.632,14.632,0,0,0,7.325,9.812,28.476,28.476,0,0,0,14.559,3.491,62.837,62.837,0,0,0,10.406-1,93.846,93.846,0,0,0,13.349-3.377c-.822,2.487-1.849,5.294-3.127,8.466-1.278,3.126-2.67,7.074-4.335,11.752a127.02,127.02,0,0,1-26.79,2.921,73.273,73.273,0,0,1-14.239-1.415,32.941,32.941,0,0,1-11.935-4.929,28.092,28.092,0,0,1-8.648-9.265,26.966,26.966,0,0,1-2.9-7.257l.183-23.664a77.205,77.205,0,0,1,8.283-21.678,55.068,55.068,0,0,1,14.559-17.069,48.993,48.993,0,0,1,17.936-8.922,80.166,80.166,0,0,1,20.081-2.3,102,102,0,0,1,25.946,3.355Z" transform="translate(369.59 137.303)" fill="#225191"></path><path id="Trazado_128" data-name="Trazado 128" d="M319.657,94.536l-.091,4.7c-1.1,3.97-2.168,7.9-3.172,11.843-1.438,5.522-2.944,11.067-4.381,16.59-1.529,6.161-3.035,12.345-4.541,18.506-1.506,6.207-3.081,12.414-4.655,18.6-1.552,6.207-3.149,12.414-4.632,18.621-1.506,6.23-3.035,12.482-4.587,18.712-1.3,5.7-2.579,11.41-3.9,17.092-4.655-.16-8.648-.3-11.98-.342-1.118,0-5.5-.023-13.235-.046,1.415-5.134,3.423-12.391,5.864-21.7,1.209-4.632,2.6-9.812,4.039-15.494q2.191-8.489,4.769-18.529c1.711-6.686,3.309-13.144,4.837-19.374,1.552-6.184,3.035-12.14,4.381-17.89,1.323-5.75,2.624-11.273,3.857-16.567,1.232-5.271,2.419-10.337,3.514-15.175,5.956.251,10.177.388,12.665.434,3.081.046,6.869.068,11.249.023Z" transform="translate(339.041 120.601)" fill="#225191"></path><path id="Trazado_129" data-name="Trazado 129" d="M251.926,180.3c-.844,2.51-1.894,5.34-3.172,8.534-1.255,3.149-2.716,7.12-4.313,11.82a121.757,121.757,0,0,1-26.493,3.149,71.036,71.036,0,0,1-14.1-1.3,31.446,31.446,0,0,1-11.752-4.838,28.453,28.453,0,0,1-8.466-9.242,31.416,31.416,0,0,1-3.833-13.965,62.632,62.632,0,0,1,1.392-16.818,78.471,78.471,0,0,1,8.4-22.066,58.216,58.216,0,0,1,14.49-17.251,47.968,47.968,0,0,1,17.708-9.128,79.865,79.865,0,0,1,20.013-2.465,107.366,107.366,0,0,1,11.98.639,108.783,108.783,0,0,1,14.33,2.693q-1.472,9.961-2.784,19.876c-8.4-3.058-16.019-4.564-22.728-4.541a37.058,37.058,0,0,0-12.208,2.122,31.682,31.682,0,0,0-10.885,6.64,34.921,34.921,0,0,0-7.9,10.428,52.609,52.609,0,0,0-4.29,12.117A36.232,36.232,0,0,0,206.9,171.7a14.451,14.451,0,0,0,7.28,9.812,27.821,27.821,0,0,0,14.331,3.4,60.908,60.908,0,0,0,10.154-1.1,92.13,92.13,0,0,0,13.258-3.514Z" transform="translate(230.357 136.817)" fill="#225191"></path><path id="Trazado_130" data-name="Trazado 130" d="M295.24,137.522a57.526,57.526,0,0,1-1,6.435q-10.611.034-21.222.023L250.766,144a70.2,70.2,0,0,1,3.332-6.937,36.684,36.684,0,0,1,3.879-5.408A28.293,28.293,0,0,1,264,126.546a29.749,29.749,0,0,1,7.508-3.446c.5-.183,1-.3,1.506-.434a26.361,26.361,0,0,1,6.252-.776,24.544,24.544,0,0,1,6.07.685,14.862,14.862,0,0,1,4.746,2.077,11.583,11.583,0,0,1,3.172,3.4,12.1,12.1,0,0,1,1.734,4.7A23.614,23.614,0,0,1,295.24,137.522Zm23.618-8.466a27.493,27.493,0,0,0-6.3-12.642,26.005,26.005,0,0,0-12.71-7.462,63.4,63.4,0,0,0-17.5-2.282,70.45,70.45,0,0,0-9.333.616,74.346,74.346,0,0,0-10.383,2.191,53.922,53.922,0,0,0-18.324,9.493,61.475,61.475,0,0,0-14.81,17.183,71.435,71.435,0,0,0-8.534,21.7A52.564,52.564,0,0,0,220.3,177.2a29.244,29.244,0,0,0,7.462,15.54,30.652,30.652,0,0,0,15.129,8.671,86.137,86.137,0,0,0,21.359,2.259c2.921-.023,5.842-.114,8.763-.32,1.757-.114,3.491-.251,5.226-.456,4.724-.5,10.565-1.483,17.525-2.9,3.377-9.333,5.887-15.814,7.416-19.4a173.089,173.089,0,0,1-18.712,4.7,84.647,84.647,0,0,1-11.455,1.369c-.936.068-1.849.091-2.761.091a36.629,36.629,0,0,1-10.839-1.643,19.36,19.36,0,0,1-8.648-5.248,17.4,17.4,0,0,1-4.381-8.626,28.247,28.247,0,0,1,.205-11.2c.274-1.324.685-3.126,1.209-5.363l25.215-.137,42.786-.205a48.91,48.91,0,0,0,2.807-8.808,41.094,41.094,0,0,0,.251-16.475Z" transform="translate(281.628 136.74)" fill="#225191"></path><path id="Trazado_131" data-name="Trazado 131" d="M207.817,137.773c-.137,1.392-.388,3.537-.936,6.458l-20.537.046c-7.211,0-14.4.023-21.564.023a70.538,70.538,0,0,1,3.195-6.983,31.387,31.387,0,0,1,3.948-5.431,26.948,26.948,0,0,1,5.956-5.134,28.48,28.48,0,0,1,7.165-3.469c.434-.137.867-.251,1.3-.365a26,26,0,0,1,6.252-.822,22.715,22.715,0,0,1,5.91.685,14.052,14.052,0,0,1,4.564,2.1,10.05,10.05,0,0,1,3.081,3.4A13.39,13.39,0,0,1,207.68,133,21.358,21.358,0,0,1,207.817,137.773Zm17.092-21.154a24.812,24.812,0,0,0-12.254-7.508,58.926,58.926,0,0,0-16.841-2.282,68.776,68.776,0,0,0-9.47.685,73.922,73.922,0,0,0-9.767,2.122,52.259,52.259,0,0,0-17.822,9.516A60.461,60.461,0,0,0,144.288,136.4a75.8,75.8,0,0,0-8.58,21.792,53.485,53.485,0,0,0-.867,19.4,29.326,29.326,0,0,0,7.005,15.608,28.869,28.869,0,0,0,14.49,8.671,80.492,80.492,0,0,0,20.766,2.282c3.058-.023,6.138-.137,9.242-.365,1.415-.114,2.83-.251,4.267-.411q6.812-.753,17.046-2.921c3.354-9.356,5.887-15.837,7.393-19.442a161.615,161.615,0,0,1-18.256,4.724,85.292,85.292,0,0,1-10.451,1.346c-1.141.068-2.259.114-3.331.114a34.679,34.679,0,0,1-10.451-1.643,18.522,18.522,0,0,1-8.261-5.271,17.027,17.027,0,0,1-4.2-8.671,29.213,29.213,0,0,1,.274-11.2c.3-1.369.753-3.172,1.415-5.408l24.553-.137,41.28-.205a50.9,50.9,0,0,0,2.761-8.854,41.715,41.715,0,0,0,.456-16.544,27.432,27.432,0,0,0-5.933-12.642Z" transform="translate(172.19 136.945)" fill="#225191"></path><path id="Trazado_132" data-name="Trazado 132" d="M324.282,61.838S271.3-4.087,175.8,17.477c0,0-54.835,4.313-99.811,51.754,0,0-94.86,109.669-27.086,173.107,0,0,32.015,31.445,101.021,18.484,0,0,51.138-9.219,88.105-52.986,0,0,19.1-21.541,24.029-48.035l86.257-6.161S341.534,270.68,214,319.353c0,0-116.447,49.29-185.452-43.745,0,0-74.528-85,17.274-202.065,0,0,54.812-78.247,166.33-73.318,0,0,71.47,0,112.134,61.612Z" transform="translate(0 0)" fill="#225191"></path><path id="Trazado_133" data-name="Trazado 133" d="M492.806,102.753C353.175,90,274.2,98.783,244.988,103.529c-5.956-5.614-14.513-7.759-14.513-7.759,23.23-9.63,29.232-21.245,29.232-21.245C277.3,42.647,247.75,35.345,247.75,35.345c-24.257-6.983-66.085-.662-66.085-.662L170.05,61.907a135.529,135.529,0,0,1,37.834-3.651c13.623,2.328,11.3,9.949,11.3,9.949-.981,7.987-11.615,11.3-11.615,11.3-13.943,3.651-30.213.662-30.213.662L168.7,108.07l22.591-.662c12.619,1.324,12.939,9.287,12.939,9.287C208.227,160.189,153.1,189.1,153.1,189.1c-59.444,35.507-102.276,9.607-102.276,9.607C-11.272,167.834,26.289,88.195,26.289,88.195,4.428,124.842,9.973,156.881,9.973,156.881c8.968,51.8,64.1,64.419,64.1,64.419,69.393,15.266,122.859-26.562,122.859-26.562,46.323-33.407,52.576-70.352,53.1-74.071,78.749-7.8,242.774-17.913,242.774-17.913Z" transform="translate(11.977 41.097)" fill="#046c43"></path></g></svg>