<svg width="16" height="16" viewBox="0 0 16 16" fill="none" xmlns="http://www.w3.org/2000/svg">
<g clip-path="url(#clip0_425_1054)">
<path d="M11 0H5C3.67392 0 2.40215 0.526784 1.46447 1.46447C0.526784 2.40215 0 3.67392 0 5L0 11C0 12.3261 0.526784 13.5979 1.46447 14.5355C2.40215 15.4732 3.67392 16 5 16H11C12.3261 16 13.5979 15.4732 14.5355 14.5355C15.4732 13.5979 16 12.3261 16 11V5C16 3.67392 15.4732 2.40215 14.5355 1.46447C13.5979 0.526784 12.3261 0 11 0ZM14.5 11C14.5 12.93 12.93 14.5 11 14.5H5C3.07 14.5 1.5 12.93 1.5 11V5C1.5 3.07 3.07 1.5 5 1.5H11C12.93 1.5 14.5 3.07 14.5 5V11Z" fill="url(#paint0_linear_425_1054)"/>
<path d="M8 4C6.93913 4 5.92172 4.42143 5.17157 5.17157C4.42143 5.92172 4 6.93913 4 8C4 9.06087 4.42143 10.0783 5.17157 10.8284C5.92172 11.5786 6.93913 12 8 12C9.06087 12 10.0783 11.5786 10.8284 10.8284C11.5786 10.0783 12 9.06087 12 8C12 6.93913 11.5786 5.92172 10.8284 5.17157C10.0783 4.42143 9.06087 4 8 4ZM8 10.5C7.3372 10.4992 6.70178 10.2356 6.23311 9.76689C5.76444 9.29822 5.50079 8.6628 5.5 8C5.5 6.621 6.622 5.5 8 5.5C9.378 5.5 10.5 6.621 10.5 8C10.5 9.378 9.378 10.5 8 10.5Z" fill="url(#paint1_linear_425_1054)"/>
<path d="M12.2986 4.23397C12.593 4.23397 12.8316 3.99534 12.8316 3.70097C12.8316 3.4066 12.593 3.16797 12.2986 3.16797C12.0043 3.16797 11.7656 3.4066 11.7656 3.70097C11.7656 3.99534 12.0043 4.23397 12.2986 4.23397Z" fill="url(#paint2_linear_425_1054)"/>
</g>
<defs>
<linearGradient id="paint0_linear_425_1054" x1="1.464" y1="14.536" x2="14.536" y2="1.464" gradientUnits="userSpaceOnUse">
<stop offset="0.99" stop-color="#F24C3D"/>
</linearGradient>
<linearGradient id="paint1_linear_425_1054" x1="5.172" y1="10.828" x2="10.828" y2="5.172" gradientUnits="userSpaceOnUse">
<stop offset="0.99" stop-color="#F24C3D"/>
</linearGradient>
<linearGradient id="paint2_linear_425_1054" x1="11.9216" y1="4.07797" x2="12.6756" y2="3.32397" gradientUnits="userSpaceOnUse">
<stop offset="0.99" stop-color="#F24C3D"/>
</linearGradient>
<clipPath id="clip0_425_1054">
<rect width="16" height="16" fill="white"/>
</clipPath>
</defs>
</svg>
