<svg width="480" height="480" viewBox="0 0 480 480" fill="none" xmlns="http://www.w3.org/2000/svg">
<path fill-rule="evenodd" clip-rule="evenodd" d="M418.478 0H61.522C27.718 0 0 27.721 0 61.521V418.478C0 452.278 27.718 480 61.522 480H418.477C452.285 480 480 452.278 480 418.479V61.521C480 27.721 452.285 0 418.478 0ZM165 231.812V380H100V193H165V231.812ZM132.37 165.128C114.287 165.128 99.614 150.466 99.614 132.372C99.614 114.275 114.287 99.631 132.37 99.631C150.478 99.631 165.137 114.276 165.137 132.372C165.137 150.466 150.479 165.128 132.37 165.128ZM380 278V380H324V289.167C324 267.417 321.645 239.443 291.836 239.443C261.574 239.443 257 263.122 257 287.599V380H203V193H255V218H255.554C263.31 204 282.311 192.98 310.605 192.98C358.277 192.98 374.477 215.523 378.91 250.792C379.962 259.069 380.368 268 380.368 278H380Z" fill="#F24C3D"/>
</svg>
