<svg width="148" height="68" viewBox="0 0 148 68" fill="none" xmlns="http://www.w3.org/2000/svg">
<path d="M27.734 8.24194C29.6597 8.24194 31.0648 8.65701 31.9493 9.48715C32.8339 10.3105 33.2762 11.4468 33.2762 12.8962C33.2762 13.5494 33.1775 14.1754 32.9802 14.7742C32.7829 15.3662 32.4597 15.8935 32.0106 16.3562C31.5683 16.8189 30.9763 17.1864 30.2346 17.4585C29.4929 17.7239 28.5777 17.8566 27.489 17.8566H26.1316V23.1641H22.9675V8.24194H27.734ZM27.5707 10.8344H26.1316V15.2641H27.1726C27.7646 15.2641 28.2784 15.1859 28.7138 15.0294C29.1493 14.8729 29.4861 14.6279 29.7243 14.2945C29.9624 13.9611 30.0815 13.5324 30.0815 13.0084C30.0815 12.2736 29.8774 11.7292 29.4691 11.3754C29.0609 11.0147 28.428 10.8344 27.5707 10.8344ZM42.2172 11.5387C42.3737 11.5387 42.5541 11.5489 42.7582 11.5693C42.9691 11.5829 43.1392 11.6033 43.2685 11.6305L43.0338 14.5496C42.9317 14.5156 42.7854 14.4918 42.5949 14.4782C42.4112 14.4578 42.2513 14.4476 42.1152 14.4476C41.7137 14.4476 41.3225 14.4986 40.9414 14.6007C40.5672 14.7027 40.2303 14.8695 39.9309 15.1008C39.6316 15.3254 39.3934 15.6247 39.2165 15.999C39.0464 16.3664 38.9613 16.8189 38.9613 17.3565V23.1641H35.8483V11.753H38.206L38.6653 13.6719H38.8184C39.043 13.284 39.322 12.9302 39.6554 12.6104C39.9956 12.2838 40.38 12.0252 40.8087 11.8347C41.2442 11.6373 41.7137 11.5387 42.2172 11.5387Z" fill="#455D73"/>
<path d="M64.0029 10.589H67.4119L69.5655 17.0089C69.6336 17.2131 69.6914 17.4206 69.739 17.6316C69.7867 17.8425 69.8275 18.0602 69.8615 18.2848C69.8955 18.5093 69.9228 18.7441 69.9432 18.989H70.0044C70.0452 18.6216 70.0997 18.278 70.1677 17.9582C70.2426 17.6384 70.3344 17.322 70.4433 17.0089L72.5561 10.589H75.8936L71.0659 23.4596C70.7733 24.2489 70.3923 24.9055 69.9228 25.4294C69.4533 25.9602 68.9123 26.3582 68.2999 26.6236C67.6943 26.889 67.0275 27.0217 66.2994 27.0217C65.9456 27.0217 65.6394 27.0013 65.3808 26.9604C65.1222 26.9264 64.9011 26.889 64.7174 26.8482V24.3782C64.8603 24.4122 65.0406 24.4428 65.2583 24.47C65.4761 24.4972 65.704 24.5108 65.9422 24.5108C66.3776 24.5108 66.7519 24.419 67.0649 24.2353C67.3779 24.0515 67.6399 23.8032 67.8508 23.4902C68.0617 23.184 68.2285 22.8472 68.3509 22.4797L68.5347 21.9183L64.0029 10.589ZM82.2422 10.3746C83.2969 10.3746 84.2053 10.5788 84.9674 10.987C85.7295 11.3885 86.318 11.9737 86.7331 12.7426C87.1482 13.5115 87.3557 14.4505 87.3557 15.5596V17.0702H79.9967C80.0307 17.948 80.2927 18.6386 80.7826 19.1421C81.2794 19.6389 81.9666 19.8872 82.8444 19.8872C83.5725 19.8872 84.2393 19.8124 84.8449 19.6627C85.4505 19.513 86.0731 19.2884 86.7127 18.989V21.3978C86.1479 21.6768 85.5559 21.8809 84.9367 22.0102C84.3243 22.1395 83.5793 22.2041 82.7015 22.2041C81.5583 22.2041 80.5445 21.9932 79.6599 21.5713C78.7821 21.1494 78.0915 20.5064 77.588 19.6423C77.0912 18.7781 76.8429 17.6894 76.8429 16.3761C76.8429 15.0425 77.0674 13.9333 77.5165 13.0488C77.9724 12.1574 78.6052 11.4905 79.4149 11.0483C80.2247 10.5992 81.1671 10.3746 82.2422 10.3746ZM82.2626 12.5895C81.657 12.5895 81.1535 12.7834 80.752 13.1712C80.3574 13.5591 80.1294 14.1681 80.0682 14.9982H84.4366C84.4298 14.5355 84.3448 14.1239 84.1815 13.7632C84.0249 13.4026 83.7868 13.1168 83.467 12.9059C83.154 12.6949 82.7525 12.5895 82.2626 12.5895ZM94.5208 22.2041C93.3913 22.2041 92.4284 22 91.6323 21.5917C90.8362 21.1767 90.2306 20.537 89.8155 19.6729C89.4005 18.8087 89.1929 17.703 89.1929 16.3557C89.1929 14.9608 89.4277 13.8245 89.8972 12.9467C90.3735 12.0621 91.0301 11.4123 91.8671 10.9972C92.7108 10.5822 93.6872 10.3746 94.7964 10.3746C95.5857 10.3746 96.2661 10.4529 96.8377 10.6094C97.4161 10.7591 97.9196 10.9394 98.3483 11.1503L97.4297 13.5591C96.9398 13.3618 96.4839 13.2019 96.062 13.0794C95.6401 12.9501 95.2182 12.8855 94.7964 12.8855C94.252 12.8855 93.7995 13.0147 93.4389 13.2733C93.0783 13.5251 92.8095 13.9061 92.6326 14.4165C92.4556 14.9268 92.3672 15.5664 92.3672 16.3353C92.3672 17.0906 92.4624 17.7166 92.653 18.2133C92.8435 18.7101 93.1191 19.0809 93.4797 19.3259C93.8403 19.564 94.2792 19.6831 94.7964 19.6831C95.4428 19.6831 96.0178 19.598 96.5213 19.4279C97.0248 19.251 97.5147 19.006 97.9911 18.693V21.357C97.5147 21.6564 97.0146 21.8707 96.4907 22C95.9735 22.1361 95.3169 22.2041 94.5208 22.2041ZM105.452 19.7239C105.792 19.7239 106.122 19.6899 106.442 19.6218C106.769 19.5538 107.092 19.4688 107.412 19.3667V21.6836C107.078 21.8333 106.663 21.9558 106.167 22.051C105.677 22.1531 105.139 22.2041 104.554 22.2041C103.873 22.2041 103.261 22.0953 102.717 21.8775C102.179 21.653 101.754 21.2685 101.441 20.7242C101.135 20.173 100.982 19.4075 100.982 18.4277V12.9263H99.4914V11.6096L101.206 10.5685L102.104 8.15978H104.095V10.589H107.289V12.9263H104.095V18.4277C104.095 18.8632 104.217 19.1898 104.462 19.4075C104.714 19.6184 105.044 19.7239 105.452 19.7239ZM114.403 10.3542C115.934 10.3542 117.108 10.6876 117.925 11.3545C118.741 12.0213 119.149 13.0352 119.149 14.396V22H116.975L116.373 20.4486H116.292C115.965 20.8569 115.632 21.1903 115.291 21.4488C114.951 21.7074 114.56 21.8979 114.118 22.0204C113.675 22.1429 113.138 22.2041 112.505 22.2041C111.831 22.2041 111.226 22.0748 110.688 21.8163C110.157 21.5577 109.739 21.1631 109.433 20.6323C109.127 20.0948 108.973 19.4143 108.973 18.591C108.973 17.3798 109.399 16.4884 110.249 15.9168C111.1 15.3385 112.376 15.0186 114.077 14.9574L116.057 14.8962V14.396C116.057 13.7973 115.9 13.3584 115.587 13.0794C115.274 12.8004 114.839 12.6609 114.281 12.6609C113.73 12.6609 113.189 12.7392 112.658 12.8957C112.127 13.0522 111.597 13.2495 111.066 13.4877L110.035 11.3851C110.641 11.0653 111.318 10.8135 112.066 10.6298C112.821 10.4461 113.6 10.3542 114.403 10.3542ZM116.057 16.713L114.852 16.7538C113.845 16.781 113.145 16.9613 112.75 17.2947C112.362 17.6282 112.168 18.067 112.168 18.6114C112.168 19.0877 112.308 19.4279 112.587 19.6321C112.866 19.8294 113.23 19.928 113.679 19.928C114.346 19.928 114.907 19.7307 115.363 19.3361C115.825 18.9414 116.057 18.38 116.057 17.652V16.713Z" fill="#455D73"/>
<path d="M7.20694 36.8703C8.45215 36.8703 9.36076 37.1255 9.93276 37.6359C10.5048 38.1463 10.7908 38.8613 10.7908 39.7809C10.7908 40.1989 10.7248 40.5971 10.5928 40.9755C10.4652 41.3495 10.254 41.6817 9.95916 41.9721C9.66436 42.2581 9.27496 42.4847 8.79095 42.6519C8.31135 42.8191 7.71955 42.9027 7.01554 42.9027H5.98594V46.5195H4.40193V36.8703H7.20694ZM7.10134 38.1837H5.98594V41.5827H6.85054C7.34774 41.5827 7.77015 41.5255 8.11775 41.4111C8.46535 41.2923 8.72935 41.1053 8.90975 40.8501C9.09015 40.5949 9.18036 40.2583 9.18036 39.8403C9.18036 39.2815 9.01095 38.8657 8.67215 38.5929C8.33775 38.3201 7.81415 38.1837 7.10134 38.1837ZM19.0276 42.8499C19.0276 43.4571 18.9484 43.9961 18.79 44.4669C18.6316 44.9377 18.4006 45.3359 18.097 45.6615C17.7934 45.9827 17.4282 46.2291 17.0014 46.4007C16.5746 46.5679 16.0928 46.6515 15.556 46.6515C15.0544 46.6515 14.5946 46.5679 14.1766 46.4007C13.7586 46.2291 13.3956 45.9827 13.0876 45.6615C12.784 45.3359 12.5486 44.9377 12.3814 44.4669C12.2142 43.9961 12.1306 43.4571 12.1306 42.8499C12.1306 42.0447 12.2692 41.3627 12.5464 40.8039C12.828 40.2407 13.2284 39.8117 13.7476 39.5169C14.2668 39.2221 14.885 39.0747 15.6022 39.0747C16.2754 39.0747 16.8694 39.2221 17.3842 39.5169C17.899 39.8117 18.3016 40.2407 18.592 40.8039C18.8824 41.3671 19.0276 42.0491 19.0276 42.8499ZM13.7278 42.8499C13.7278 43.3823 13.7916 43.8377 13.9192 44.2161C14.0512 44.5945 14.2536 44.8849 14.5264 45.0873C14.7992 45.2853 15.1512 45.3843 15.5824 45.3843C16.0136 45.3843 16.3656 45.2853 16.6384 45.0873C16.9112 44.8849 17.1114 44.5945 17.239 44.2161C17.3666 43.8377 17.4304 43.3823 17.4304 42.8499C17.4304 42.3175 17.3666 41.8665 17.239 41.4969C17.1114 41.1229 16.9112 40.8391 16.6384 40.6455C16.3656 40.4475 16.0114 40.3485 15.5758 40.3485C14.9334 40.3485 14.4648 40.5641 14.17 40.9953C13.8752 41.4265 13.7278 42.0447 13.7278 42.8499ZM23.5288 45.3975C23.7312 45.3975 23.9314 45.3799 24.1294 45.3447C24.3274 45.3051 24.5078 45.2589 24.6706 45.2061V46.3809C24.499 46.4557 24.2768 46.5195 24.004 46.5723C23.7312 46.6251 23.4474 46.6515 23.1526 46.6515C22.739 46.6515 22.3672 46.5833 22.0372 46.4469C21.7072 46.3061 21.4454 46.0663 21.2518 45.7275C21.0582 45.3887 20.9614 44.9201 20.9614 44.3217V40.3947H19.9648V39.7017L21.034 39.1539L21.5422 37.5897H22.519V39.2133H24.6112V40.3947H22.519V44.3019C22.519 44.6715 22.6114 44.9465 22.7962 45.1269C22.981 45.3073 23.2252 45.3975 23.5288 45.3975ZM29.0663 39.0747C29.7175 39.0747 30.2763 39.2089 30.7427 39.4773C31.2091 39.7457 31.5677 40.1263 31.8185 40.6191C32.0693 41.1119 32.1947 41.7015 32.1947 42.3879V43.2195H27.3173C27.3349 43.9279 27.5241 44.4735 27.8849 44.8563C28.2501 45.2391 28.7605 45.4305 29.4161 45.4305C29.8825 45.4305 30.3005 45.3865 30.6701 45.2985C31.0441 45.2061 31.4291 45.0719 31.8251 44.8959V46.1565C31.4599 46.3281 31.0881 46.4535 30.7097 46.5327C30.3313 46.6119 29.8781 46.6515 29.3501 46.6515C28.6329 46.6515 28.0015 46.5129 27.4559 46.2357C26.9147 45.9541 26.4901 45.5361 26.1821 44.9817C25.8785 44.4273 25.7267 43.7387 25.7267 42.9159C25.7267 42.0975 25.8653 41.4023 26.1425 40.8303C26.4197 40.2583 26.8091 39.8227 27.3107 39.5235C27.8123 39.2243 28.3975 39.0747 29.0663 39.0747ZM29.0663 40.2429C28.5779 40.2429 28.1819 40.4013 27.8783 40.7181C27.5791 41.0349 27.4031 41.4991 27.3503 42.1107H30.6767C30.6723 41.7455 30.6107 41.4221 30.4919 41.1405C30.3775 40.8589 30.2015 40.6389 29.9639 40.4805C29.7307 40.3221 29.4315 40.2429 29.0663 40.2429ZM37.7519 39.0747C38.5747 39.0747 39.2149 39.2881 39.6725 39.7149C40.1345 40.1373 40.3655 40.8171 40.3655 41.7543V46.5195H38.8145V42.0447C38.8145 41.4771 38.6979 41.0525 38.4647 40.7709C38.2315 40.4849 37.8707 40.3419 37.3823 40.3419C36.6739 40.3419 36.1811 40.5597 35.9039 40.9953C35.6311 41.4309 35.4947 42.0623 35.4947 42.8895V46.5195H33.9437V39.2133H35.1515L35.3693 40.2033H35.4551C35.6135 39.9481 35.8093 39.7391 36.0425 39.5763C36.2801 39.4091 36.5441 39.2837 36.8345 39.2001C37.1293 39.1165 37.4351 39.0747 37.7519 39.0747ZM45.4806 46.6515C44.7898 46.6515 44.1914 46.5173 43.6854 46.2489C43.1794 45.9805 42.79 45.5691 42.5171 45.0147C42.2443 44.4603 42.1079 43.7563 42.1079 42.9027C42.1079 42.0139 42.2575 41.2879 42.5567 40.7247C42.856 40.1615 43.2696 39.7457 43.7976 39.4773C44.33 39.2089 44.9394 39.0747 45.6258 39.0747C46.0614 39.0747 46.4552 39.1187 46.8072 39.2067C47.1636 39.2903 47.465 39.3937 47.7114 39.5169L47.2494 40.7577C46.981 40.6477 46.706 40.5553 46.4244 40.4805C46.1428 40.4057 45.8722 40.3683 45.6126 40.3683C45.1858 40.3683 44.8294 40.4629 44.5434 40.6521C44.2618 40.8413 44.0506 41.1229 43.9098 41.4969C43.7734 41.8709 43.7052 42.3351 43.7052 42.8895C43.7052 43.4263 43.7756 43.8795 43.9164 44.2491C44.0572 44.6143 44.2662 44.8915 44.5434 45.0807C44.8206 45.2655 45.1616 45.3579 45.5664 45.3579C45.9668 45.3579 46.3254 45.3095 46.6422 45.2127C46.959 45.1159 47.2582 44.9905 47.5398 44.8365V46.1829C47.2626 46.3413 46.9656 46.4579 46.6488 46.5327C46.332 46.6119 45.9426 46.6515 45.4806 46.6515ZM50.8068 39.2133V46.5195H49.2558V39.2133H50.8068ZM50.0412 36.4149C50.2788 36.4149 50.4834 36.4787 50.655 36.6063C50.831 36.7339 50.919 36.9539 50.919 37.2663C50.919 37.5743 50.831 37.7943 50.655 37.9263C50.4834 38.0539 50.2788 38.1177 50.0412 38.1177C49.7948 38.1177 49.5858 38.0539 49.4142 37.9263C49.247 37.7943 49.1634 37.5743 49.1634 37.2663C49.1634 36.9539 49.247 36.7339 49.4142 36.6063C49.5858 36.4787 49.7948 36.4149 50.0412 36.4149ZM55.8954 39.0747C56.8194 39.0747 57.5168 39.2793 57.9876 39.6885C58.4628 40.0977 58.7004 40.7357 58.7004 41.6025V46.5195H57.5982L57.3012 45.4833H57.2484C57.0416 45.7473 56.8282 45.9651 56.6082 46.1367C56.3882 46.3083 56.133 46.4359 55.8426 46.5195C55.5566 46.6075 55.2068 46.6515 54.7932 46.6515C54.3576 46.6515 53.9682 46.5723 53.625 46.4139C53.2818 46.2511 53.0112 46.0047 52.8132 45.6747C52.6152 45.3447 52.5162 44.9267 52.5162 44.4207C52.5162 43.6683 52.7956 43.1029 53.3544 42.7245C53.9176 42.3461 54.7668 42.1371 55.902 42.0975L57.1692 42.0513V41.6685C57.1692 41.1625 57.0504 40.8017 56.8128 40.5861C56.5796 40.3705 56.2496 40.2627 55.8228 40.2627C55.4576 40.2627 55.1034 40.3155 54.7602 40.4211C54.417 40.5267 54.0826 40.6565 53.757 40.8105L53.2554 39.7149C53.6118 39.5257 54.0166 39.3717 54.4698 39.2529C54.9274 39.1341 55.4026 39.0747 55.8954 39.0747ZM57.1626 43.0281L56.2188 43.0611C55.4444 43.0875 54.901 43.2195 54.5886 43.4571C54.2762 43.6947 54.12 44.0203 54.12 44.4339C54.12 44.7947 54.2278 45.0587 54.4434 45.2259C54.659 45.3887 54.9428 45.4701 55.2948 45.4701C55.8316 45.4701 56.276 45.3183 56.628 45.0147C56.9844 44.7067 57.1626 44.2557 57.1626 43.6617V43.0281ZM62.4295 46.5195H60.8719V36.2499H62.4295V46.5195ZM67.5577 39.0747C68.2089 39.0747 68.7677 39.2089 69.2341 39.4773C69.7005 39.7457 70.0591 40.1263 70.3099 40.6191C70.5607 41.1119 70.6861 41.7015 70.6861 42.3879V43.2195H65.8087C65.8263 43.9279 66.0155 44.4735 66.3763 44.8563C66.7415 45.2391 67.2519 45.4305 67.9075 45.4305C68.3739 45.4305 68.7919 45.3865 69.1615 45.2985C69.5355 45.2061 69.9205 45.0719 70.3165 44.8959V46.1565C69.9513 46.3281 69.5795 46.4535 69.2011 46.5327C68.8227 46.6119 68.3695 46.6515 67.8415 46.6515C67.1243 46.6515 66.4929 46.5129 65.9473 46.2357C65.4061 45.9541 64.9815 45.5361 64.6735 44.9817C64.3699 44.4273 64.2181 43.7387 64.2181 42.9159C64.2181 42.0975 64.3567 41.4023 64.6339 40.8303C64.9111 40.2583 65.3005 39.8227 65.8021 39.5235C66.3037 39.2243 66.8889 39.0747 67.5577 39.0747ZM67.5577 40.2429C67.0693 40.2429 66.6733 40.4013 66.3697 40.7181C66.0705 41.0349 65.8945 41.4991 65.8417 42.1107H69.1681C69.1637 41.7455 69.1021 41.4221 68.9833 41.1405C68.8689 40.8589 68.6929 40.6389 68.4553 40.4805C68.2221 40.3221 67.9229 40.2429 67.5577 40.2429ZM77.3456 44.4339C77.3456 44.9135 77.229 45.3183 76.9958 45.6483C76.7625 45.9783 76.4215 46.2291 75.9727 46.4007C75.5283 46.5679 74.9827 46.6515 74.3359 46.6515C73.8255 46.6515 73.3855 46.6141 73.0159 46.5393C72.6507 46.4689 72.3053 46.3589 71.9797 46.2093V44.8695C72.3273 45.0323 72.7167 45.1731 73.1479 45.2919C73.5835 45.4107 73.9949 45.4701 74.3821 45.4701C74.8925 45.4701 75.2599 45.3909 75.4843 45.2325C75.7087 45.0697 75.8209 44.8541 75.8209 44.5857C75.8209 44.4273 75.7747 44.2865 75.6823 44.1633C75.5943 44.0357 75.4271 43.9059 75.1807 43.7739C74.9387 43.6375 74.5823 43.4747 74.1115 43.2855C73.6495 43.1007 73.2601 42.9159 72.9433 42.7311C72.6265 42.5463 72.3867 42.3241 72.2239 42.0645C72.0611 41.8005 71.9797 41.4639 71.9797 41.0547C71.9797 40.4079 72.2349 39.9173 72.7453 39.5829C73.2601 39.2441 73.9399 39.0747 74.7847 39.0747C75.2335 39.0747 75.6559 39.1209 76.0519 39.2133C76.4523 39.3013 76.8439 39.4311 77.2268 39.6027L76.7383 40.7709C76.4083 40.6257 76.0761 40.5069 75.7417 40.4145C75.4117 40.3177 75.0751 40.2693 74.7319 40.2693C74.3315 40.2693 74.0257 40.3309 73.8145 40.4541C73.6077 40.5773 73.5043 40.7533 73.5043 40.9821C73.5043 41.1537 73.5549 41.2989 73.6561 41.4177C73.7573 41.5365 73.9311 41.6553 74.1775 41.7741C74.4283 41.8929 74.7759 42.0403 75.2203 42.2163C75.6559 42.3835 76.0321 42.5595 76.3489 42.7443C76.6701 42.9247 76.9165 43.1469 77.0882 43.4109C77.2598 43.6749 77.3456 44.0159 77.3456 44.4339Z" fill="#F26D3D"/>
<path d="M90.3014 46.5195H88.724V42.1635H84.2756V46.5195H82.6916V36.8703H84.2756V40.8171H88.724V36.8703H90.3014V46.5195ZM99.0663 39.2133V46.5195H97.8453L97.6341 45.5361H97.5483C97.3943 45.7869 97.1985 45.9959 96.9609 46.1631C96.7233 46.3259 96.4593 46.4469 96.1689 46.5261C95.8785 46.6097 95.5727 46.6515 95.2515 46.6515C94.7015 46.6515 94.2307 46.5591 93.8391 46.3743C93.4519 46.1851 93.1548 45.8947 92.948 45.5031C92.7412 45.1115 92.6378 44.6055 92.6378 43.9851V39.2133H94.1955V43.6947C94.1955 44.2623 94.3099 44.6869 94.5387 44.9685C94.7719 45.2501 95.1327 45.3909 95.6211 45.3909C96.0919 45.3909 96.4659 45.2941 96.7431 45.1005C97.0203 44.9069 97.2161 44.6209 97.3305 44.2425C97.4493 43.8641 97.5087 43.3999 97.5087 42.8499V39.2133H99.0663ZM109.547 39.0747C110.366 39.0747 110.982 39.2859 111.395 39.7083C111.813 40.1307 112.022 40.8083 112.022 41.7411V46.5195H110.471V42.0183C110.471 41.4639 110.363 41.0459 110.148 40.7643C109.932 40.4827 109.604 40.3419 109.164 40.3419C108.548 40.3419 108.104 40.5399 107.831 40.9359C107.563 41.3275 107.429 41.8973 107.429 42.6453V46.5195H105.878V42.0183C105.878 41.6487 105.829 41.3407 105.732 41.0943C105.64 40.8435 105.497 40.6565 105.303 40.5333C105.11 40.4057 104.866 40.3419 104.571 40.3419C104.144 40.3419 103.803 40.4387 103.548 40.6323C103.297 40.8259 103.117 41.1119 103.007 41.4903C102.897 41.8643 102.842 42.3241 102.842 42.8697V46.5195H101.29V39.2133H102.498L102.716 40.1967H102.802C102.952 39.9415 103.136 39.7325 103.356 39.5697C103.581 39.4025 103.829 39.2793 104.102 39.2001C104.375 39.1165 104.659 39.0747 104.954 39.0747C105.499 39.0747 105.959 39.1715 106.333 39.3651C106.707 39.5543 106.986 39.8447 107.171 40.2363H107.29C107.519 39.8403 107.838 39.5477 108.247 39.3585C108.656 39.1693 109.09 39.0747 109.547 39.0747ZM117.051 39.0747C117.975 39.0747 118.673 39.2793 119.144 39.6885C119.619 40.0977 119.856 40.7357 119.856 41.6025V46.5195H118.754L118.457 45.4833H118.404C118.198 45.7473 117.984 45.9651 117.764 46.1367C117.544 46.3083 117.289 46.4359 116.999 46.5195C116.713 46.6075 116.363 46.6515 115.949 46.6515C115.514 46.6515 115.124 46.5723 114.781 46.4139C114.438 46.2511 114.167 46.0047 113.969 45.6747C113.771 45.3447 113.672 44.9267 113.672 44.4207C113.672 43.6683 113.952 43.1029 114.51 42.7245C115.074 42.3461 115.923 42.1371 117.058 42.0975L118.325 42.0513V41.6685C118.325 41.1625 118.206 40.8017 117.969 40.5861C117.736 40.3705 117.406 40.2627 116.979 40.2627C116.614 40.2627 116.259 40.3155 115.916 40.4211C115.573 40.5267 115.239 40.6565 114.913 40.8105L114.411 39.7149C114.768 39.5257 115.173 39.3717 115.626 39.2529C116.083 39.1341 116.559 39.0747 117.051 39.0747ZM118.319 43.0281L117.375 43.0611C116.6 43.0875 116.057 43.2195 115.745 43.4571C115.432 43.6947 115.276 44.0203 115.276 44.4339C115.276 44.7947 115.384 45.0587 115.599 45.2259C115.815 45.3887 116.099 45.4701 116.451 45.4701C116.988 45.4701 117.432 45.3183 117.784 45.0147C118.14 44.7067 118.319 44.2557 118.319 43.6617V43.0281ZM125.836 39.0747C126.659 39.0747 127.299 39.2881 127.757 39.7149C128.219 40.1373 128.45 40.8171 128.45 41.7543V46.5195H126.899V42.0447C126.899 41.4771 126.782 41.0525 126.549 40.7709C126.316 40.4849 125.955 40.3419 125.466 40.3419C124.758 40.3419 124.265 40.5597 123.988 40.9953C123.715 41.4309 123.579 42.0623 123.579 42.8895V46.5195H122.028V39.2133H123.236L123.453 40.2033H123.539C123.698 39.9481 123.893 39.7391 124.127 39.5763C124.364 39.4091 124.628 39.2837 124.919 39.2001C125.213 39.1165 125.519 39.0747 125.836 39.0747ZM137.089 42.8499C137.089 43.4571 137.01 43.9961 136.852 44.4669C136.693 44.9377 136.462 45.3359 136.159 45.6615C135.855 45.9827 135.49 46.2291 135.063 46.4007C134.636 46.5679 134.154 46.6515 133.617 46.6515C133.116 46.6515 132.656 46.5679 132.238 46.4007C131.82 46.2291 131.457 45.9827 131.149 45.6615C130.845 45.3359 130.61 44.9377 130.443 44.4669C130.276 43.9961 130.192 43.4571 130.192 42.8499C130.192 42.0447 130.331 41.3627 130.608 40.8039C130.889 40.2407 131.29 39.8117 131.809 39.5169C132.328 39.2221 132.946 39.0747 133.664 39.0747C134.337 39.0747 134.931 39.2221 135.446 39.5169C135.961 39.8117 136.363 40.2407 136.654 40.8039C136.944 41.3671 137.089 42.0491 137.089 42.8499ZM131.789 42.8499C131.789 43.3823 131.853 43.8377 131.981 44.2161C132.113 44.5945 132.315 44.8849 132.588 45.0873C132.861 45.2853 133.213 45.3843 133.644 45.3843C134.075 45.3843 134.427 45.2853 134.7 45.0873C134.973 44.8849 135.173 44.5945 135.301 44.2161C135.428 43.8377 135.492 43.3823 135.492 42.8499C135.492 42.3175 135.428 41.8665 135.301 41.4969C135.173 41.1229 134.973 40.8391 134.7 40.6455C134.427 40.4475 134.073 40.3485 133.637 40.3485C132.995 40.3485 132.526 40.5641 132.231 40.9953C131.937 41.4265 131.789 42.0447 131.789 42.8499ZM143.782 44.4339C143.782 44.9135 143.665 45.3183 143.432 45.6483C143.199 45.9783 142.858 46.2291 142.409 46.4007C141.964 46.5679 141.419 46.6515 140.772 46.6515C140.262 46.6515 139.822 46.6141 139.452 46.5393C139.087 46.4689 138.741 46.3589 138.416 46.2093V44.8695C138.763 45.0323 139.153 45.1731 139.584 45.2919C140.02 45.4107 140.431 45.4701 140.818 45.4701C141.329 45.4701 141.696 45.3909 141.92 45.2325C142.145 45.0697 142.257 44.8541 142.257 44.5857C142.257 44.4273 142.211 44.2865 142.118 44.1633C142.03 44.0357 141.863 43.9059 141.617 43.7739C141.375 43.6375 141.018 43.4747 140.548 43.2855C140.086 43.1007 139.696 42.9159 139.379 42.7311C139.063 42.5463 138.823 42.3241 138.66 42.0645C138.497 41.8005 138.416 41.4639 138.416 41.0547C138.416 40.4079 138.671 39.9173 139.181 39.5829C139.696 39.2441 140.376 39.0747 141.221 39.0747C141.67 39.0747 142.092 39.1209 142.488 39.2133C142.888 39.3013 143.28 39.4311 143.663 39.6027L143.174 40.7709C142.844 40.6257 142.512 40.5069 142.178 40.4145C141.848 40.3177 141.511 40.2693 141.168 40.2693C140.768 40.2693 140.462 40.3309 140.251 40.4541C140.044 40.5773 139.94 40.7533 139.94 40.9821C139.94 41.1537 139.991 41.2989 140.092 41.4177C140.193 41.5365 140.367 41.6553 140.614 41.7741C140.864 41.8929 141.212 42.0403 141.656 42.2163C142.092 42.3835 142.468 42.5595 142.785 42.7443C143.106 42.9247 143.353 43.1469 143.524 43.4109C143.696 43.6749 143.782 44.0159 143.782 44.4339Z" fill="#455D73"/>
<path fill-rule="evenodd" clip-rule="evenodd" d="M54.1652 16.1658L50.8154 8.23774H52.3023L54.1635 11.9379L56.0248 8.23774H57.5151L54.1652 16.1658ZM54.2714 8.12891C53.8237 8.12891 53.4608 8.52885 53.4608 9.0222C53.4608 9.51556 53.8237 9.9155 54.2714 9.9155C54.7191 9.9155 55.082 9.51556 55.082 9.0222C55.082 8.52885 54.7191 8.12891 54.2714 8.12891ZM45.562 20.1889L53.49 16.839L45.562 13.4892V14.9749L49.2621 16.8362L45.562 18.6974V20.1889ZM46.3464 17.542C45.8531 17.542 45.4531 17.1791 45.4531 16.7315C45.4531 16.2838 45.8531 15.9209 46.3464 15.9209C46.8398 15.9209 47.2397 16.2838 47.2397 16.7315C47.2397 17.1791 46.8398 17.542 46.3464 17.542ZM57.5209 25.4345L54.171 17.5065L50.8212 25.4345H52.3115L54.1727 21.7343L56.034 25.4345H57.5209ZM54.8702 24.6525C54.8702 25.1459 54.5073 25.5458 54.0596 25.5458C53.6119 25.5458 53.249 25.1459 53.249 24.6525C53.249 24.1592 53.6119 23.7593 54.0596 23.7593C54.5073 23.7593 54.8702 24.1592 54.8702 24.6525ZM62.7587 13.4834L54.8307 16.8332L62.7587 20.1831V18.6973L59.0585 16.8361L62.7587 14.9748V13.4834ZM61.9768 16.1327C62.4701 16.1327 62.8701 16.4956 62.8701 16.9433C62.8701 17.3909 62.4701 17.7538 61.9768 17.7538C61.4834 17.7538 61.0835 17.3909 61.0835 16.9433C61.0835 16.4956 61.4834 16.1327 61.9768 16.1327Z" fill="#F26D3D"/>
</svg>
